<?xml version="1.0" standalone="no"?>
<!DOCTYPE svg PUBLIC "-//W3C//DTD SVG 20010904//EN"
 "http://www.w3.org/TR/2001/REC-SVG-20010904/DTD/svg10.dtd">
<svg version="1.0" xmlns="http://www.w3.org/2000/svg"
 width="700.000000pt" height="700.000000pt" viewBox="0 0 700.000000 700.000000"
 preserveAspectRatio="xMidYMid meet">
<metadata>
Created by potrace 1.14, written by Peter Selinger 2001-2017
</metadata>
<g transform="translate(0.000000,700.000000) scale(0.100000,-0.100000)"
fill="#000000" stroke="none">
<path d="M3457 6894 c-1 -1 -65 -4 -142 -7 -77 -4 -151 -9 -165 -11 -14 -2
-52 -7 -85 -11 -33 -3 -96 -12 -140 -20 -44 -8 -92 -16 -106 -19 -48 -8 -313
-77 -329 -86 -8 -4 -17 -8 -20 -7 -12 1 -153 -50 -261 -94 -515 -211 -972
-548 -1330 -979 -242 -292 -434 -627 -569 -995 -205 -558 -257 -1149 -155
-1760 37 -224 142 -570 232 -765 115 -249 168 -343 306 -550 45 -68 166 -229
192 -256 5 -6 30 -35 55 -64 101 -120 316 -325 450 -430 350 -275 744 -478
1164 -600 56 -16 112 -31 126 -34 102 -23 274 -56 315 -61 28 -3 57 -8 65 -10
17 -4 128 -15 210 -21 88 -6 388 -6 465 0 131 11 228 23 310 38 33 5 74 12 90
15 17 2 59 11 95 19 36 9 73 17 82 19 62 13 298 85 343 105 11 4 63 25 115 45
144 57 260 114 455 224 128 72 377 254 510 370 71 63 289 284 340 346 27 33
52 62 55 65 18 17 117 150 173 235 37 55 70 105 75 111 50 70 193 349 251 489
76 181 170 486 196 635 49 275 60 405 60 680 0 254 -11 379 -54 625 -58 330
-210 740 -386 1045 -21 36 -43 74 -49 85 -37 64 -140 214 -203 295 -148 192
-388 440 -546 565 -21 17 -48 38 -60 49 -100 84 -350 244 -522 335 -226 120
-584 253 -795 296 -8 2 -51 11 -95 20 -44 9 -98 19 -119 21 -22 3 -43 7 -46 9
-4 2 -40 7 -81 11 -41 3 -83 8 -94 10 -35 7 -371 23 -378 18z"/>
</g>
</svg>
