<svg id="Layer_1" data-name="Layer 1" xmlns="http://www.w3.org/2000/svg" viewBox="0 0 1053 935"><path d="M829,83.94A126.06,126.06,0,0,0,710.33.44H126a126,126,0,0,0-126,126H0a126,126,0,0,0,126,126H306.52L162.64,353.85a132.6,132.6,0,0,0-32,184.76h0a132.61,132.61,0,0,0,184.77,32L782.3,241.74A132.62,132.62,0,0,0,829,83.94Z"/><path class="cls-1" d="M927,683.25H746.19L890.77,581.4a132.61,132.61,0,0,0,32.05-184.77h0a132.6,132.6,0,0,0-184.77-32L271.11,693.51a132.63,132.63,0,0,0-50.78,146A126,126,0,0,0,342.67,935.3H927a126,126,0,0,0,126-126h0A126,126,0,0,0,927,683.25Z"/></svg>